<?xml version="1.0" encoding="UTF-8"?>
<svg id="Calque_1" data-name="Calque 1" xmlns="http://www.w3.org/2000/svg" viewBox="0 0 495.34 278.35">
  <defs>
    <style>
      .cls-1 {
        stroke-width: 1.99px;
      }

      .cls-1, .cls-2 {
        fill: none;
        stroke: #255f48;
        stroke-linecap: round;
        stroke-linejoin: round;
      }

      .cls-3 {
        fill: #1d1d1b;
      }

      .cls-4 {
        letter-spacing: 0em;
      }

      .cls-2 {
        font-family: MrEavesModOT-Thin, 'Mr Eaves Mod OT';
        font-size: 11.02px;
        font-weight: 200;
        stroke-width: 1.99px;
      }

      .cls-5 {
        fill: #2a2422;
      }

      .cls-6 {
        letter-spacing: .02em;
      }
    </style>
  </defs>
  <g>
    <path class="cls-5" d="M0,101.08h2.19v18.06c2.03-9.79,11.65-20.08,25.99-20.08,15.19,0,28.01,11.98,28.01,30.72s-12.83,30.88-28.01,30.88c-14.34,0-23.96-10.29-25.99-20.08v50.97H0v-90.46ZM2.02,129.77c0,17.89,12.15,28.86,26.16,28.86s25.82-10.97,25.82-28.86-11.81-28.69-25.82-28.69-26.16,11.14-26.16,28.69Z"/>
    <path class="cls-5" d="M99.73,160.82c-16.37,0-29.53-12.32-29.53-31.05s13.16-30.88,29.53-30.88,29.53,12.32,29.53,30.88-13.16,31.05-29.53,31.05ZM99.73,100.91c-15.36,0-27.34,11.31-27.34,28.86s11.98,29.03,27.34,29.03,27.34-11.31,27.34-29.03-11.98-28.86-27.34-28.86Z"/>
    <path class="cls-5" d="M149,124.2v34.43h-2.19v-57.55h2.19v14.85c3.88-11.98,14.85-16.37,21.94-16.88v2.19c-11.81.34-21.94,10.8-21.94,22.95Z"/>
    <path class="cls-5" d="M196.42,103.11v55.52h-2.19v-55.52h-12.83v-2.03h12.83v-19.41h2.19v19.41h12.83v2.03h-12.83Z"/>
    <path class="cls-5" d="M270,125.05h-46.24s-.17,2.87-.17,4.39c0,16.2,8.1,29.03,27.34,29.03,6.92,0,15.36-3.21,19.07-6.41v2.19c-4.39,3.54-11.98,6.24-20.25,6.24-16.88,0-28.35-11.81-28.35-31.05s13.67-30.38,25.99-30.38,22.78,8.94,22.78,21.6c0,1.01-.17,4.39-.17,4.39ZM247.89,101.08c-9.79,0-20.93,6.24-23.96,22.11h44.05v-3.21c0-10.63-8.78-18.9-20.08-18.9Z"/>
  </g>
  <g>
    <g>
      <text class="cls-2" transform="translate(446.57 222.6) scale(1.02 1)"><tspan class="cls-6" x="0" y="0"> </tspan><tspan class="cls-4" x="2.14" y="0"> </tspan></text>
      <line class="cls-1" x1="367.03" y1=".99" x2="367.03" y2="248.7"/>
      <line class="cls-1" x1="442.21" y1="21.43" x2="442.21" y2="229.62"/>
      <line class="cls-1" x1="367.17" y1="185.19" x2="442.06" y2="205.04"/>
      <line class="cls-1" x1="367.41" y1="65.93" x2="441.8" y2="51.13"/>
      <polyline class="cls-1" points="442.21 21.43 367.03 .99 316.49 6.25 316.49 243.44 367.03 248.7 441.57 230.09 442.28 229.85 494.35 183.27 494.35 69.44 494.23 69.33 442.21 21.43"/>
    </g>
    <line class="cls-1" x1="366.68" y1="1.46" x2="317.01" y2="74.45"/>
    <line class="cls-1" x1="367.03" y1="248.7" x2="316.65" y2="189.88"/>
  </g>
  <g>
    <path class="cls-3" d="M18.84,191.56c-2.02,0-3.96-.81-4.77-1.26l.09-.54c1.12.67,2.97,1.26,4.72,1.26,2.65,0,4.63-1.17,4.63-3.83,0-2.07-1.57-2.92-4.81-3.91-2.79-.86-4.27-1.98-4.27-4.23s1.8-3.92,4.81-3.92c1.48,0,3.06.63,3.82.99l-.09.54c-1.08-.54-2.52-.99-3.73-.99-2.97,0-4.23,1.53-4.23,3.38,0,2.12,1.48,2.97,4.05,3.78,3.01.9,5.04,2.02,5.04,4.32,0,3.11-2.38,4.41-5.26,4.41Z"/>
    <path class="cls-3" d="M40.89,182.07h-12.33s-.04.77-.04,1.17c0,4.32,2.16,7.74,7.29,7.74,1.85,0,4.09-.86,5.08-1.71v.58c-1.17.95-3.19,1.67-5.4,1.67-4.5,0-7.56-3.15-7.56-8.28s3.65-8.1,6.93-8.1,6.07,2.39,6.07,5.76c0,.27-.04,1.17-.04,1.17ZM35,175.68c-2.61,0-5.58,1.67-6.39,5.9h11.74v-.86c0-2.83-2.34-5.04-5.35-5.04ZM33.38,172.22l-.27-.31,5.13-4.37.36.45-5.22,4.23Z"/>
    <path class="cls-3" d="M43.73,199.98c-.94,0-1.67-.45-1.94-.63v-.54c.5.36,1.17.63,1.89.63,1.62,0,2.29-.9,2.29-3.92v-19.84h.58v20.38c0,2.16-.58,3.92-2.83,3.92ZM45.98,170.42v-1.53h.58v1.53h-.58Z"/>
    <path class="cls-3" d="M59.16,191.61c-4.37,0-7.88-3.29-7.88-8.28s3.51-8.24,7.88-8.24,7.87,3.29,7.87,8.24-3.51,8.28-7.87,8.28ZM59.16,175.64c-4.1,0-7.29,3.02-7.29,7.7s3.19,7.74,7.29,7.74,7.29-3.01,7.29-7.74-3.19-7.7-7.29-7.7Z"/>
    <path class="cls-3" d="M72.35,175.68v8.91c0,4.95,1.84,6.43,4.86,6.43,3.24,0,6.48-3.1,6.48-6.21v-9.13h.58v15.34h-.58v-4.23c-.81,2.79-4,4.77-6.52,4.77-3.29,0-5.4-1.62-5.4-6.97v-8.91h.58Z"/>
    <path class="cls-3" d="M90.71,181.85v9.18h-.58v-15.34h.58v3.96c1.04-3.19,3.96-4.36,5.85-4.5v.58c-3.15.09-5.85,2.88-5.85,6.12Z"/>
    <path class="cls-3" d="M120.54,182.07h-12.33s-.04.77-.04,1.17c0,4.32,2.16,7.74,7.29,7.74,1.85,0,4.09-.86,5.08-1.71v.58c-1.17.95-3.19,1.67-5.4,1.67-4.5,0-7.56-3.15-7.56-8.28s3.65-8.1,6.93-8.1,6.07,2.39,6.07,5.76c0,.27-.04,1.17-.04,1.17ZM114.64,175.68c-2.61,0-5.58,1.67-6.39,5.9h11.74v-.86c0-2.83-2.34-5.04-5.35-5.04Z"/>
    <path class="cls-3" d="M137.59,191.02v-8.91c0-4.95-1.84-6.44-4.86-6.44-3.24,0-6.48,3.11-6.48,6.21v9.13h-.58v-15.34h.58v4.23c.81-2.79,4-4.77,6.52-4.77,3.28,0,5.4,1.62,5.4,6.98v8.91h-.58Z"/>
    <path class="cls-3" d="M165.31,191.02v-4.81c-.54,2.61-3.1,5.35-6.93,5.35-4.05,0-7.47-3.24-7.47-8.23s3.42-8.19,7.47-8.19c3.82,0,6.39,2.75,6.93,5.36v-16.47h.58v27h-.58ZM151.5,183.33c0,4.77,3.15,7.69,6.88,7.69s6.97-2.92,6.97-7.69-3.24-7.65-6.97-7.65-6.88,2.97-6.88,7.65Z"/>
    <path class="cls-3" d="M172.29,175.68v8.91c0,4.95,1.84,6.43,4.86,6.43,3.24,0,6.48-3.1,6.48-6.21v-9.13h.58v15.34h-.58v-4.23c-.81,2.79-4,4.77-6.52,4.77-3.29,0-5.4-1.62-5.4-6.97v-8.91h.58Z"/>
    <path class="cls-3" d="M196.86,191.61c-4.37,0-7.88-3.29-7.88-8.28s3.51-8.24,7.88-8.24,7.87,3.29,7.87,8.24-3.51,8.28-7.87,8.28ZM196.86,175.64c-4.1,0-7.29,3.02-7.29,7.7s3.19,7.74,7.29,7.74,7.29-3.01,7.29-7.74-3.19-7.7-7.29-7.7Z"/>
    <path class="cls-3" d="M45.98,221.02v-4.81c-.54,2.61-3.1,5.35-6.93,5.35-4.05,0-7.47-3.24-7.47-8.23s3.42-8.19,7.47-8.19c3.82,0,6.39,2.75,6.93,5.36v-16.47h.58v27h-.58ZM32.17,213.33c0,4.77,3.15,7.69,6.88,7.69s6.97-2.92,6.97-7.69-3.24-7.65-6.97-7.65-6.88,2.97-6.88,7.65Z"/>
    <path class="cls-3" d="M64.48,212.07h-12.33s-.04.77-.04,1.17c0,4.32,2.16,7.74,7.29,7.74,1.85,0,4.09-.86,5.08-1.71v.58c-1.17.95-3.19,1.67-5.4,1.67-4.5,0-7.56-3.15-7.56-8.28s3.65-8.1,6.93-8.1,6.07,2.39,6.07,5.76c0,.27-.04,1.17-.04,1.17ZM58.58,205.68c-2.61,0-5.58,1.67-6.39,5.9h11.74v-.86c0-2.83-2.34-5.04-5.35-5.04Z"/>
    <path class="cls-3" d="M90.94,221.02v-4.81c-.54,2.61-3.1,5.35-6.93,5.35-4.05,0-7.47-3.24-7.47-8.23s3.42-8.19,7.47-8.19c3.82,0,6.39,2.75,6.93,5.36v-16.47h.58v27h-.58ZM77.12,213.33c0,4.77,3.15,7.69,6.88,7.69s6.97-2.92,6.97-7.69-3.24-7.65-6.97-7.65-6.88,2.97-6.88,7.65Z"/>
    <path class="cls-3" d="M109.43,212.07h-12.33s-.04.77-.04,1.17c0,4.32,2.16,7.74,7.29,7.74,1.85,0,4.09-.86,5.08-1.71v.58c-1.17.95-3.19,1.67-5.4,1.67-4.5,0-7.56-3.15-7.56-8.28s3.65-8.1,6.93-8.1,6.07,2.39,6.07,5.76c0,.27-.04,1.17-.04,1.17ZM103.54,205.68c-2.61,0-5.58,1.67-6.39,5.9h11.74v-.86c0-2.83-2.34-5.04-5.35-5.04ZM101.92,202.22l-.27-.31,5.13-4.37.36.45-5.22,4.23Z"/>
    <path class="cls-3" d="M121.36,221.56c-4.1,0-7.69-3.1-7.69-8.23s3.6-8.19,7.69-8.19c1.66,0,3.33.32,4.72,1.31v.58c-1.4-.99-3.15-1.35-4.5-1.35-4,0-7.33,2.79-7.33,7.65s3.33,7.69,7.33,7.69c1.35,0,3.24-.32,4.5-1.3v.58c-1.35.94-3.1,1.26-4.72,1.26Z"/>
    <path class="cls-3" d="M137.74,221.61c-4.37,0-7.88-3.29-7.88-8.28s3.51-8.24,7.88-8.24,7.87,3.29,7.87,8.24-3.51,8.28-7.87,8.28ZM137.74,205.64c-4.1,0-7.29,3.02-7.29,7.7s3.19,7.74,7.29,7.74,7.29-3.01,7.29-7.74-3.19-7.7-7.29-7.7Z"/>
    <path class="cls-3" d="M171.98,221.02v-9.9c0-4.28-1.94-5.45-4.19-5.45-3.06,0-6.03,3.15-6.03,5.99v9.36h-.59v-9.9c0-4.28-1.93-5.45-4.18-5.45-3.06,0-6.03,3.15-6.03,5.99v9.36h-.58v-15.34h.58v3.96c1.04-2.65,3.6-4.5,6.07-4.5,2.92,0,4.41,1.75,4.63,4.68.99-2.7,3.6-4.68,6.17-4.68,3.46,0,4.72,2.43,4.72,5.9v9.99h-.58Z"/>
    <path class="cls-3" d="M178.37,205.68h.58v4.82c.54-2.61,3.1-5.36,6.93-5.36,4.05,0,7.47,3.2,7.47,8.19s-3.42,8.23-7.47,8.23c-3.82,0-6.39-2.75-6.93-5.35v13.59h-.58v-24.12ZM178.91,213.33c0,4.77,3.24,7.69,6.97,7.69s6.88-2.92,6.88-7.69-3.15-7.65-6.88-7.65-6.97,2.97-6.97,7.65Z"/>
    <path class="cls-3" d="M198.85,211.85v9.18h-.58v-15.34h.58v3.96c1.04-3.19,3.96-4.36,5.85-4.5v.58c-3.15.09-5.85,2.88-5.85,6.12Z"/>
    <path class="cls-3" d="M220.35,212.07h-12.33s-.04.77-.04,1.17c0,4.32,2.16,7.74,7.29,7.74,1.85,0,4.09-.86,5.08-1.71v.58c-1.17.95-3.19,1.67-5.4,1.67-4.5,0-7.56-3.15-7.56-8.28s3.65-8.1,6.93-8.1,6.07,2.39,6.07,5.76c0,.27-.04,1.17-.04,1.17ZM214.46,205.68c-2.61,0-5.58,1.67-6.39,5.9h11.74v-.86c0-2.83-2.34-5.04-5.35-5.04Z"/>
    <path class="cls-3" d="M229.27,221.56c-2.02,0-3.96-.81-4.77-1.26l.09-.54c1.12.67,2.97,1.26,4.72,1.26,2.65,0,4.63-1.17,4.63-3.83,0-2.07-1.57-2.92-4.81-3.91-2.79-.86-4.27-1.98-4.27-4.23s1.8-3.92,4.81-3.92c1.48,0,3.06.63,3.82.99l-.09.54c-1.08-.54-2.52-.99-3.73-.99-2.97,0-4.23,1.53-4.23,3.38,0,2.12,1.48,2.97,4.05,3.78,3.01.9,5.04,2.02,5.04,4.32,0,3.11-2.38,4.41-5.26,4.41Z"/>
    <path class="cls-3" d="M243.03,221.56c-2.02,0-3.96-.81-4.77-1.26l.09-.54c1.12.67,2.97,1.26,4.72,1.26,2.66,0,4.63-1.17,4.63-3.83,0-2.07-1.57-2.92-4.81-3.91-2.79-.86-4.27-1.98-4.27-4.23s1.8-3.92,4.81-3.92c1.48,0,3.06.63,3.82.99l-.09.54c-1.08-.54-2.52-.99-3.73-.99-2.97,0-4.23,1.53-4.23,3.38,0,2.12,1.48,2.97,4.05,3.78,3.01.9,5.04,2.02,5.04,4.32,0,3.11-2.38,4.41-5.26,4.41Z"/>
    <path class="cls-3" d="M252.98,200.42v-1.53h.58v1.53h-.58ZM252.98,221.02v-15.34h.58v15.34h-.58Z"/>
    <path class="cls-3" d="M266.16,221.61c-4.37,0-7.88-3.29-7.88-8.28s3.51-8.24,7.88-8.24,7.87,3.29,7.87,8.24-3.51,8.28-7.87,8.28ZM266.16,205.64c-4.1,0-7.29,3.02-7.29,7.7s3.19,7.74,7.29,7.74,7.29-3.01,7.29-7.74-3.19-7.7-7.29-7.7Z"/>
    <path class="cls-3" d="M290.73,221.02v-8.91c0-4.95-1.84-6.44-4.86-6.44-3.24,0-6.48,3.11-6.48,6.21v9.13h-.58v-15.34h.58v4.23c.81-2.79,4-4.77,6.52-4.77,3.29,0,5.4,1.62,5.4,6.98v8.91h-.58Z"/>
  </g>
</svg>