<!DOCTYPE svg PUBLIC "-//W3C//DTD SVG 1.1//EN" "http://www.w3.org/Graphics/SVG/1.1/DTD/svg11.dtd">
<!-- Uploaded to: SVG Repo, www.svgrepo.com, Transformed by: SVG Repo Mixer Tools -->
<svg fill="#255f48" height="800px" width="800px" version="1.1" id="Layer_1" xmlns="http://www.w3.org/2000/svg" xmlns:xlink="http://www.w3.org/1999/xlink" viewBox="0 0 512 512" xml:space="preserve" stroke="#255f48">
<g id="SVGRepo_bgCarrier" stroke-width="0"/>
<g id="SVGRepo_tracerCarrier" stroke-linecap="round" stroke-linejoin="round"/>
<g id="SVGRepo_iconCarrier"> <g> <g> <path d="M324.085,299.574c-4.513,0-8.17,3.658-8.17,8.17v57.191H185.192v-57.191c0-4.512-3.658-8.17-8.17-8.17 s-8.17,3.658-8.17,8.17v65.362c0,4.512,3.658,8.17,8.17,8.17h147.064c4.513,0,8.17-3.658,8.17-8.17v-65.362 C332.255,303.233,328.598,299.574,324.085,299.574z"/> </g> </g> <g> <g> <path d="M503.83,266.894H8.17c-4.512,0-8.17,3.658-8.17,8.17v70.808c0,4.512,3.658,8.17,8.17,8.17s8.17-3.658,8.17-8.17v-62.638 h108.936V384c0,22.526,18.325,40.851,40.851,40.851h168.851c22.526,0,40.851-18.325,40.851-40.851V283.234h119.83v166.128 c0,25.529-20.769,46.298-46.298,46.298H62.638c-25.529,0-46.298-20.769-46.298-46.298v-70.808c0-4.512-3.658-8.17-8.17-8.17 S0,374.041,0,378.553v70.808C0,483.901,28.099,512,62.638,512h386.723C483.901,512,512,483.901,512,449.362V275.064 C512,270.552,508.343,266.894,503.83,266.894z M359.489,384c0,13.516-10.996,24.511-24.511,24.511H166.128 c-13.516,0-24.511-10.995-24.511-24.511V283.234h217.872V384z"/> </g> </g> <g> <g> <path d="M356.666,168.382l-20.654-11.925l10.709-2.869c4.359-1.168,6.945-5.648,5.777-10.007 c-1.167-4.359-5.647-6.941-10.007-5.777l-26.493,7.099l-19.147-11.058v-28.303l19.148-11.055l26.493,7.098 c0.708,0.19,1.421,0.28,2.12,0.28c3.608,0,6.909-2.407,7.886-6.058c1.168-4.359-1.418-8.838-5.777-10.007l-10.71-2.869 l20.654-11.925c3.908-2.256,5.246-7.253,2.99-11.16c-2.256-3.909-7.255-5.247-11.161-2.99L327.841,68.78l2.869-10.71 c1.168-4.359-1.418-8.838-5.777-10.007c-4.36-1.168-8.839,1.418-10.007,5.778l-7.098,26.492l-19.268,11.125L264.17,77.376V55.129 l19.395-19.395c3.191-3.191,3.191-8.364,0-11.554c-3.192-3.191-8.364-3.191-11.555,0l-7.839,7.84V8.17 c0-4.512-3.657-8.17-8.17-8.17c-4.512,0-8.17,3.658-8.17,8.17v23.85l-7.84-7.84c-3.191-3.191-8.364-3.191-11.554,0 c-3.191,3.191-3.191,8.364,0,11.554l19.393,19.394v22.247l-24.392,14.083l-19.266-11.123l-7.099-26.493 c-1.168-4.359-5.648-6.943-10.007-5.777c-4.359,1.168-6.945,5.648-5.777,10.007l2.869,10.71l-20.654-11.925 c-3.909-2.257-8.906-0.917-11.161,2.99c-2.256,3.908-0.917,8.904,2.99,11.161l20.654,11.925l-10.71,2.869 c-4.359,1.168-6.945,5.648-5.778,10.007c0.978,3.65,4.279,6.058,7.887,6.058c0.701,0,1.412-0.09,2.12-0.28l26.494-7.098 l19.148,11.054v28.303l-19.148,11.055l-26.493-7.099c-4.355-1.165-8.839,1.418-10.007,5.777 c-1.168,4.359,1.418,8.839,5.777,10.007l10.71,2.869l-20.654,11.925c-3.909,2.257-5.247,7.254-2.99,11.163 c1.513,2.621,4.259,4.086,7.083,4.086c1.386,0,2.791-0.353,4.077-1.096l20.654-11.925l-2.869,10.708 c-1.168,4.359,1.418,8.839,5.777,10.007c0.708,0.19,1.419,0.28,2.12,0.28c3.607,0,6.909-2.407,7.887-6.058l7.099-26.493 l19.03-10.987l24.628,14.219v21.975l-19.394,19.394c-3.191,3.191-3.191,8.364,0,11.554c3.191,3.191,8.364,3.191,11.554,0 l7.84-7.84v23.85c0,4.512,3.658,8.17,8.17,8.17c4.513,0,8.17-3.658,8.17-8.17v-23.849l7.839,7.84 c1.596,1.595,3.688,2.393,5.778,2.393c2.091,0,4.182-0.797,5.778-2.393c3.191-3.191,3.191-8.364,0-11.554l-19.395-19.394v-21.974 l24.628-14.219l19.031,10.988l7.098,26.492c0.977,3.65,4.279,6.058,7.886,6.058c0.7,0,1.412-0.09,2.12-0.28 c4.359-1.168,6.945-5.648,5.777-10.007l-2.869-10.71l20.654,11.925c1.288,0.743,2.692,1.096,4.078,1.096 c2.824,0,5.57-1.466,7.083-4.086C361.912,175.635,360.573,170.638,356.666,168.382z M280.511,133.981L256,148.132l-24.511-14.152 v-28.302L256,91.527l24.511,14.152V133.981z"/> </g> </g> </g>
</svg>