<!DOCTYPE svg PUBLIC "-//W3C//DTD SVG 1.1//EN" "http://www.w3.org/Graphics/SVG/1.1/DTD/svg11.dtd">
<!-- Uploaded to: SVG Repo, www.svgrepo.com, Transformed by: SVG Repo Mixer Tools -->
<svg fill="#255f48" version="1.1" id="Capa_1" xmlns="http://www.w3.org/2000/svg" xmlns:xlink="http://www.w3.org/1999/xlink" viewBox="0 0 219.57 219.57" xml:space="preserve" width="800px" height="800px">
<g id="SVGRepo_bgCarrier" stroke-width="0"/>
<g id="SVGRepo_tracerCarrier" stroke-linecap="round" stroke-linejoin="round"/>
<g id="SVGRepo_iconCarrier"> <g> <path d="M188.021,186.721c19.499-19.825,31.549-46.998,31.549-76.936C219.57,49.249,170.321,0,109.785,0 C79.847,0,52.674,12.051,32.849,31.55c-0.239,0.187-0.473,0.385-0.693,0.605s-0.419,0.454-0.606,0.694 C12.05,52.675,0,79.848,0,109.785C0,170.321,49.249,219.57,109.785,219.57c29.938,0,57.111-12.051,76.936-31.55 c0.239-0.187,0.473-0.385,0.693-0.605S187.834,186.961,188.021,186.721z M204.57,109.785c0,23.438-8.556,44.913-22.702,61.476 l-39.976-39.976h10.549v-15h-25.549L48.31,37.702C64.872,23.556,86.347,15,109.785,15C162.05,15,204.57,57.521,204.57,109.785z M15,109.785c0-23.438,8.556-44.913,22.702-61.476l67.976,67.976H47.156v15h73.521l50.583,50.583 c-16.563,14.146-38.037,22.702-61.476,22.702C57.521,204.57,15,162.05,15,109.785z"/> <rect x="162.186" y="116.285" width="10.229" height="15"/> <path d="M119.004,87.295h37.891c1.699,0,3.082,1.384,3.082,3.084v10.703c0,4.143,3.357,7.5,7.5,7.5c4.143,0,7.5-3.357,7.5-7.5 V90.379c0-9.972-8.111-18.084-18.082-18.084h-37.891c-1.7,0-3.084-1.384-3.084-3.084c0-1.699,1.384-3.082,3.084-3.082 c4.143,0,7.5-3.357,7.5-7.5c0-4.143-3.357-7.5-7.5-7.5c-9.972,0-18.084,8.111-18.084,18.082 C100.92,79.183,109.032,87.295,119.004,87.295z"/> </g> </g>
</svg>