<!DOCTYPE svg PUBLIC "-//W3C//DTD SVG 1.1//EN" "http://www.w3.org/Graphics/SVG/1.1/DTD/svg11.dtd">
<!-- Uploaded to: SVG Repo, www.svgrepo.com, Transformed by: SVG Repo Mixer Tools -->
<svg fill="#255f48" height="800px" width="800px" version="1.1" id="Layer_1" xmlns="http://www.w3.org/2000/svg" xmlns:xlink="http://www.w3.org/1999/xlink" viewBox="0 0 490.667 490.667" xml:space="preserve">
<g id="SVGRepo_bgCarrier" stroke-width="0"/>
<g id="SVGRepo_tracerCarrier" stroke-linecap="round" stroke-linejoin="round"/>
<g id="SVGRepo_iconCarrier"> <g> <g> <g> <path d="M159.445,426.667h0.725c42.219-0.661,42.731-41.472,42.773-64h-86.251C118.976,386.795,122.965,426.667,159.445,426.667z "/> <path d="M245.333,0C110.059,0,0,110.059,0,245.333s110.059,245.333,245.333,245.333s245.333-110.059,245.333-245.333 S380.608,0,245.333,0z M245.333,469.333c-123.52,0-224-100.48-224-224c0-57.92,22.293-110.613,58.496-150.421l78.763,78.763 c-33.28,10.837-49.472,50.539-51.819,77.099c-1.984,22.165,0.704,56.405,6.976,90.56h91.371 c3.563-13.483,8.107-22.229,12.949-31.083c6.336-11.541,12.885-23.488,16.235-45.141c0.789-5.013,1.045-9.6,1.429-14.272l160,160 C355.947,447.04,303.253,469.333,245.333,469.333z M410.837,395.755L94.912,79.829c39.808-36.203,92.501-58.496,150.421-58.496 c123.52,0,224,100.48,224,224C469.333,303.253,447.04,355.947,410.837,395.755z"/> <path d="M347.179,301.931c2.027,2.027,4.736,3.115,7.552,3.115c0.533,0,1.088-0.043,1.621-0.128 c3.349-0.512,6.272-2.603,7.829-5.611c6.677-12.843,8.405-29.653,9.771-43.328h-72.704L347.179,301.931z"/> <path d="M314.432,64.021c-20.565-1.003-36.288,5.888-46.72,18.048c-13.525,15.765-17.408,40.768-11.904,76.373 c3.349,21.675,9.877,33.664,16.192,45.248c4.843,8.875,9.387,17.557,12.928,30.976h91.989c6.272-34.155,8.981-68.416,6.976-90.56 C381.141,113.28,359.957,64.448,314.432,64.021z"/> </g> </g> </g> </g>
</svg>